<?xml version="1.0" encoding="utf-8"?>
<!-- Generator: Adobe Illustrator 19.1.1, SVG Export Plug-In . SVG Version: 6.00 Build 0)  -->
<svg version="1.1" xmlns="http://www.w3.org/2000/svg" xmlns:xlink="http://www.w3.org/1999/xlink" x="0px" y="0px"
	 viewBox="0 0 56.7 56.7" style="enable-background:new 0 0 56.7 56.7;" xml:space="preserve">
<style type="text/css">
	.st0{display:none;}
	.st1{display:inline;fill:#3D4FA1;}
	.st2{fill:#FFFFFF;}
</style>
<g id="Layer_2" class="st0">
	<rect class="st1" width="56.7" height="56.7"/>
</g>
<g id="Layer_3">
	<path class="st2" d="M28.2,4.2c0.3,0,1.2,0.1,1.7,1.1l5.3,12.8c0.5,1.3,1.7,2.1,3.1,2.2l13.8,1c1.1,0.1,1.5,0.9,1.6,1.2
		c0.1,0.2,0.3,1.2-0.5,1.9l-10.8,8.8c-1.1,0.9-1.5,2.3-1.2,3.6l3.3,13.3c0.2,0.8-0.1,1.3-0.3,1.6c-0.3,0.4-0.8,0.7-1.3,0.7
		c-0.3,0-0.6-0.1-0.9-0.3l-11.8-7.3c-0.6-0.3-1.2-0.5-1.9-0.5c-0.7,0-1.3,0.2-1.9,0.5l-11.7,7.3c-0.3,0.2-0.6,0.3-0.9,0.3
		c-0.5,0-1-0.2-1.4-0.7c-0.2-0.3-0.4-0.8-0.2-1.5l3.3-13.3c0.3-1.3-0.2-2.7-1.2-3.6L3.4,24.5c-0.8-0.7-0.6-1.7-0.5-1.9
		c0.1-0.3,0.5-1.2,1.6-1.2l13.8-1c1.4-0.1,2.5-0.9,3.1-2.2l5.3-12.8C26.9,4.3,27.9,4.2,28.2,4.2 M28.2,2.2c-1.2,0-2.8,0.6-3.5,2.4
		l-5.3,12.8c-0.2,0.6-0.7,0.9-1.4,1l-13.8,1c-1.8,0.1-2.9,1.4-3.3,2.5C0.6,23,0.6,24.7,2.1,26l10.7,8.8c0.5,0.4,0.7,1,0.5,1.6
		L10,49.7c-0.3,1.2-0.1,2.3,0.6,3.2c0.7,0.9,1.8,1.5,3,1.5c0.7,0,1.4-0.2,2-0.6l11.7-7.3c0.3-0.2,0.5-0.2,0.8-0.2
		c0.3,0,0.6,0.1,0.8,0.2l11.8,7.2c0.6,0.4,1.3,0.6,2,0.6c1.1,0,2.1-0.5,2.9-1.4c0.7-0.9,1-2.1,0.7-3.3L43,36.4
		c-0.1-0.6,0.1-1.2,0.5-1.6L54.3,26l0,0l0,0c1.1-1,1.5-2.4,1.1-3.9l0-0.1l0-0.1c-0.4-1.2-1.5-2.5-3.3-2.5l-13.8-1
		c-0.6,0-1.1-0.4-1.3-1L31.7,4.6C31,2.8,29.4,2.2,28.2,2.2L28.2,2.2z"/>
</g>
</svg>
