<svg viewBox="0 0 25 24" fill="none" xmlns="http://www.w3.org/2000/svg">
    <path fill-rule="evenodd" clip-rule="evenodd" d="M5.56932 4.52694C4.78155 3.75267 3.50432 3.75267 2.71655 4.52694L2.28045 4.95556C1.49268 5.72983 1.49268 6.98516 2.28045 7.75943L8.04847 13.4286L2.28045 19.0977C1.49268 19.872 1.49268 21.1273 2.28046 21.9016L2.71655 22.3302C3.50432 23.1044 4.78155 23.1044 5.56933 22.3302L11.3373 16.661L17.1053 22.3302C17.8931 23.1044 19.1704 23.1044 19.9581 22.3302L20.3942 21.9016C21.182 21.1273 21.182 19.872 20.3942 19.0977L14.6262 13.4286L20.3942 7.75943C21.182 6.98516 21.182 5.72982 20.3942 4.95556L19.9581 4.52694C19.1704 3.75267 17.8931 3.75267 17.1053 4.52694L11.3373 10.1961L5.56932 4.52694Z" fill="#FCB9A2"/>
    <path d="M2.71655 4.52694L2.35995 4.17646L2.71655 4.52694ZM5.56932 4.52694L5.21272 4.87742L5.56932 4.52694ZM2.28045 4.95556L2.63705 5.30604L2.28045 4.95556ZM8.04847 13.4286L8.40506 13.779L8.76166 13.4286L8.40506 13.0781L8.04847 13.4286ZM2.28045 19.0977L1.92386 18.7472L2.28045 19.0977ZM2.28046 21.9016L2.63705 21.5511L2.28046 21.9016ZM2.71655 22.3302L2.35995 22.6807L2.71655 22.3302ZM5.56933 22.3302L5.21273 21.9797L5.56933 22.3302ZM11.3373 16.661L11.6939 16.3106L11.3373 15.9601L10.9807 16.3106L11.3373 16.661ZM17.1053 22.3302L16.7488 22.6807L17.1053 22.3302ZM19.9581 22.3302L20.3147 22.6807L19.9581 22.3302ZM20.3942 21.9016L20.0376 21.5511L20.3942 21.9016ZM14.6262 13.4286L14.2696 13.0781L13.913 13.4286L14.2696 13.779L14.6262 13.4286ZM20.3942 7.75943L20.7508 8.10991L20.3942 7.75943ZM20.3942 4.95556L20.0376 5.30604L20.3942 4.95556ZM19.9581 4.52694L20.3147 4.17646L19.9581 4.52694ZM17.1053 4.52694L16.7488 4.17646L17.1053 4.52694ZM11.3373 10.1961L10.9807 10.5466L11.3373 10.897L11.6939 10.5466L11.3373 10.1961ZM3.07314 4.87742C3.66397 4.29672 4.6219 4.29672 5.21272 4.87742L5.92592 4.17646C4.9412 3.20862 3.34466 3.20862 2.35995 4.17646L3.07314 4.87742ZM2.63705 5.30604L3.07314 4.87742L2.35995 4.17646L1.92386 4.60508L2.63705 5.30604ZM2.63705 7.40895C2.04622 6.82824 2.04622 5.88674 2.63705 5.30604L1.92386 4.60508C0.93914 5.57291 0.939143 7.14208 1.92386 8.10991L2.63705 7.40895ZM8.40506 13.0781L2.63705 7.40895L1.92386 8.10991L7.69187 13.779L8.40506 13.0781ZM2.63705 19.4482L8.40506 13.779L7.69187 13.0781L1.92386 18.7472L2.63705 19.4482ZM2.63705 21.5511C2.04622 20.9704 2.04622 20.0289 2.63705 19.4482L1.92386 18.7472C0.939143 19.715 0.939145 21.2842 1.92386 22.252L2.63705 21.5511ZM3.07315 21.9797L2.63705 21.5511L1.92386 22.252L2.35995 22.6807L3.07315 21.9797ZM5.21273 21.9797C4.6219 22.5604 3.66398 22.5604 3.07315 21.9797L2.35995 22.6807C3.34467 23.6485 4.94121 23.6485 5.92592 22.6807L5.21273 21.9797ZM10.9807 16.3106L5.21273 21.9797L5.92592 22.6807L11.6939 17.0115L10.9807 16.3106ZM17.4619 21.9797L11.6939 16.3106L10.9807 17.0115L16.7488 22.6807L17.4619 21.9797ZM19.6015 21.9797C19.0107 22.5604 18.0528 22.5604 17.4619 21.9797L16.7488 22.6807C17.7335 23.6485 19.33 23.6485 20.3147 22.6807L19.6015 21.9797ZM20.0376 21.5511L19.6015 21.9797L20.3147 22.6807L20.7508 22.252L20.0376 21.5511ZM20.0376 19.4482C20.6284 20.0289 20.6285 20.9704 20.0376 21.5511L20.7508 22.252C21.7355 21.2842 21.7355 19.715 20.7508 18.7472L20.0376 19.4482ZM14.2696 13.779L20.0376 19.4482L20.7508 18.7472L14.9828 13.0781L14.2696 13.779ZM20.0376 7.40894L14.2696 13.0781L14.9828 13.779L20.7508 8.10991L20.0376 7.40894ZM20.0376 5.30604C20.6285 5.88674 20.6285 6.82824 20.0376 7.40894L20.7508 8.10991C21.7355 7.14208 21.7355 5.57291 20.7508 4.60507L20.0376 5.30604ZM19.6015 4.87742L20.0376 5.30604L20.7508 4.60507L20.3147 4.17646L19.6015 4.87742ZM17.4619 4.87743C18.0528 4.29672 19.0107 4.29672 19.6015 4.87742L20.3147 4.17646C19.33 3.20862 17.7335 3.20862 16.7488 4.17646L17.4619 4.87743ZM11.6939 10.5466L17.4619 4.87742L16.7488 4.17646L10.9807 9.84559L11.6939 10.5466ZM5.21272 4.87742L10.9807 10.5466L11.6939 9.84559L5.92592 4.17646L5.21272 4.87742Z" fill="#FCB9A2"/>
    <path fill-rule="evenodd" clip-rule="evenodd" d="M7.18181 1.54027C6.78793 1.15313 6.14931 1.15313 5.75542 1.54027L3.89294 3.37082C3.49906 3.75795 3.49906 4.38562 3.89294 4.77275L10.3742 11.1429L3.89295 17.513C3.49906 17.9001 3.49906 18.5278 3.89295 18.9149L5.75543 20.7454C6.14931 21.1326 6.78793 21.1326 7.18181 20.7454L13.663 14.3753L20.1442 20.7454C20.5381 21.1326 21.1767 21.1326 21.5706 20.7454L23.4331 18.9149C23.827 18.5278 23.827 17.9001 23.4331 17.513L16.9519 11.1429L23.4331 4.77275C23.827 4.38562 23.827 3.75795 23.4331 3.37082L21.5706 1.54027C21.1767 1.15313 20.5381 1.15313 20.1442 1.54027L13.663 7.91037L7.18181 1.54027Z" fill="#83FFE8"/>
    <path d="M5.75542 1.54027L5.39883 1.18978L5.75542 1.54027ZM7.18181 1.54027L6.82521 1.89075L7.18181 1.54027ZM3.89294 3.37082L3.53635 3.02034L3.89294 3.37082ZM3.89294 4.77275L3.53635 5.12324L3.53635 5.12324L3.89294 4.77275ZM10.3742 11.1429L10.7307 11.4933L11.0873 11.1429L10.7307 10.7924L10.3742 11.1429ZM3.89295 18.9149L3.53635 19.2654L3.89295 18.9149ZM5.75543 20.7454L6.11202 20.395L5.75543 20.7454ZM13.663 14.3753L14.0196 14.0249L13.663 13.6744L13.3064 14.0249L13.663 14.3753ZM20.1442 20.7454L20.5008 20.395L20.1442 20.7454ZM23.4331 17.513L23.7897 17.1625L23.4331 17.513ZM16.9519 11.1429L16.5953 10.7924L16.2387 11.1429L16.5953 11.4933L16.9519 11.1429ZM13.663 7.91037L13.3064 8.26085L13.663 8.61133L14.0196 8.26085L13.663 7.91037ZM6.11202 1.89075C6.30896 1.69718 6.62827 1.69718 6.82521 1.89075L7.53841 1.18978C6.94758 0.609082 5.98966 0.609083 5.39883 1.18978L6.11202 1.89075ZM4.24954 3.7213L6.11202 1.89075L5.39883 1.18978L3.53635 3.02034L4.24954 3.7213ZM4.24954 4.42227C4.0526 4.2287 4.0526 3.91487 4.24954 3.7213L3.53635 3.02034C2.94552 3.60104 2.94552 4.54254 3.53635 5.12324L4.24954 4.42227ZM10.7307 10.7924L4.24954 4.42227L3.53635 5.12324L10.0176 11.4933L10.7307 10.7924ZM4.24954 17.8634L10.7307 11.4933L10.0176 10.7924L3.53635 17.1625L4.24954 17.8634ZM4.24954 18.5644C4.0526 18.3708 4.0526 18.057 4.24954 17.8634L3.53635 17.1625C2.94552 17.7432 2.94552 18.6847 3.53635 19.2654L4.24954 18.5644ZM6.11202 20.395L4.24954 18.5644L3.53635 19.2654L5.39883 21.0959L6.11202 20.395ZM6.82522 20.395C6.62827 20.5885 6.30897 20.5885 6.11202 20.395L5.39883 21.0959C5.98966 21.6766 6.94758 21.6766 7.53841 21.0959L6.82522 20.395ZM13.3064 14.0249L6.82522 20.395L7.53841 21.0959L14.0196 14.7258L13.3064 14.0249ZM20.5008 20.395L14.0196 14.0249L13.3064 14.7258L19.7876 21.0959L20.5008 20.395ZM21.214 20.395C21.0171 20.5885 20.6978 20.5885 20.5008 20.395L19.7876 21.0959C20.3785 21.6766 21.3364 21.6766 21.9272 21.0959L21.214 20.395ZM23.0765 18.5644L21.214 20.395L21.9272 21.0959L23.7897 19.2654L23.0765 18.5644ZM23.0765 17.8634C23.2734 18.057 23.2734 18.3708 23.0765 18.5644L23.7897 19.2654C24.3805 18.6847 24.3805 17.7432 23.7897 17.1625L23.0765 17.8634ZM16.5953 11.4933L23.0765 17.8634L23.7897 17.1625L17.3085 10.7924L16.5953 11.4933ZM23.0765 4.42227L16.5953 10.7924L17.3085 11.4933L23.7897 5.12324L23.0765 4.42227ZM23.0765 3.7213C23.2734 3.91487 23.2734 4.2287 23.0765 4.42227L23.7897 5.12324C24.3805 4.54254 24.3805 3.60103 23.7897 3.02033L23.0765 3.7213ZM21.214 1.89075L23.0765 3.7213L23.7897 3.02033L21.9272 1.18978L21.214 1.89075ZM20.5008 1.89075C20.6978 1.69718 21.0171 1.69718 21.214 1.89075L21.9272 1.18978C21.3364 0.609082 20.3785 0.609082 19.7876 1.18978L20.5008 1.89075ZM14.0196 8.26085L20.5008 1.89075L19.7876 1.18978L13.3064 7.55988L14.0196 8.26085ZM6.82521 1.89075L13.3064 8.26085L14.0196 7.55988L7.53841 1.18978L6.82521 1.89075Z" fill="#393845"/>
</svg>
