<?xml version="1.0" encoding="utf-8"?>
<!-- Generator: Adobe Illustrator 23.0.4, SVG Export Plug-In . SVG Version: 6.00 Build 0)  -->
<svg version="1.1" id="Layer_1" xmlns="http://www.w3.org/2000/svg" xmlns:xlink="http://www.w3.org/1999/xlink" x="0px" y="0px"
	 width="30px" height="90px" viewBox="0 0 30 90" style="enable-background:new 0 0 30 90;" xml:space="preserve">
<style type="text/css">
	.st0{fill:none;}
	.st1{fill:#1e1e58;}
	.st2{display:none;}
</style>
<rect y="0" class="st0" width="30" height="30"/>
<rect y="60" class="st0" width="30" height="30"/>
<rect y="30.1" class="st0" width="30" height="30"/>
<g>
	<path class="st1" d="M15.1,53.7l-0.2-0.1c-0.5-0.3-4.7-2.8-5.7-5.9c-1.3-4-0.4-9.2-0.4-9.5v-0.1L8.9,38C9,37.9,11,36.7,15,36.7l0,0
		c4.1,0,6,1.3,6.1,1.3l0.1,0.1v0.1c0.1,0.2,0.9,5.5-0.4,9.4C19.9,50.7,15.7,53.3,15.1,53.7L15.1,53.7z M9.6,38.5
		c-0.2,0.9-0.8,5.5,0.3,8.8c0.4,1.1,1.3,2.5,2.9,3.7c0.7,0.6,1.6,1.1,2.3,1.7c0.8-0.5,1.6-1.1,2.3-1.7c1.5-1.2,2.5-2.6,2.9-3.7
		c1.1-3.4,0.5-8,0.4-8.9c-0.5-0.3-2.3-1.1-5.5-1.1l0,0C11.7,37.2,10.1,38.2,9.6,38.5z"/>
	<path class="st1" d="M18.1,42.7h-0.2v-0.9c0-1.6-1.2-2.8-2.8-2.9c-0.1,0-0.1,0-0.1,0c-1.6,0.1-2.8,1.3-2.8,2.9v0.9H12
		c-0.4,0.1-0.6,0.4-0.6,0.7v4.3c0,0.4,0.2,0.6,0.6,0.7h6.2c0.4-0.1,0.6-0.4,0.6-0.7v-4.3C18.6,43,18.5,42.7,18.1,42.7z M15.6,45.5
		v1.3c0,0.1-0.1,0.3-0.3,0.3h-0.6c-0.1,0-0.3-0.1-0.3-0.3v-1.3c-0.3-0.4-0.3-0.9,0-1.1c0.1-0.1,0.3-0.2,0.5-0.2c0.1,0,0.1,0,0.1,0
		c0.4,0.1,0.7,0.4,0.7,0.9C15.8,45.2,15.7,45.4,15.6,45.5L15.6,45.5z M16.8,42.7h-3.4v-0.9c0-0.9,0.7-1.7,1.7-1.7s1.7,0.8,1.7,1.7
		l0,0V42.7L16.8,42.7z"/>
</g>
<g>
	<path class="st1" d="M19.7,76.5c0.1,0.2,0.3,0.6,0.8,1.4c0.4,0.7,0.9,1.4,0.9,1.4l0.1,0.1l0.1,0.1v0.1v0.8c0,0.1-0.1,0.1-0.1,0.1
		l0,0h-4.2c-0.4,0-0.7,0.3-0.8,0.6c-0.2,0.9-1.1,1.5-2.1,1.3c-0.6-0.1-1.1-0.6-1.2-1.3c-0.1-0.4-0.4-0.7-0.8-0.6H8.1
		c-0.1,0-0.1,0-0.1-0.1l0,0v-0.8v-0.1l0,0c1.2-0.9,1.9-3.8,1.9-5.1v-2.2c0-2.7,2.2-4.7,4.8-4.7c0.7,0,1.4,0.1,2.1,0.4
		c0.5,0.2,1.1,0.5,1.5,1c0.3-0.1,0.5-0.2,0.7-0.3c-0.5-0.6-1.2-1.1-2.1-1.4c-0.7-0.3-1.5-0.5-2.3-0.5c-3.1,0-5.7,2.5-5.7,5.4v2.2
		c0,1.3-0.7,3.9-1.5,4.5l0,0c-0.2,0.1-0.3,0.4-0.3,0.6v0.8c0,0.5,0.4,0.8,0.8,0.8h4.2c0.1,0,0.1,0,0.1,0.1c0.3,1.3,1.6,2.3,3,1.9
		c0.9-0.2,1.6-0.9,1.9-1.9c0-0.1,0.1-0.1,0.1-0.1h4.2c0.5,0,0.8-0.3,0.8-0.8v-0.8c0-0.2-0.1-0.5-0.3-0.6c-0.5-0.9-1.1-2-1.4-2.5
		c-0.2,0-0.4,0.1-0.6,0.1C19.8,76.5,19.8,76.5,19.7,76.5z"/>
	<path class="st1" d="M16.1,72.5c0-1,0.4-2,1.1-2.8c-0.3-0.2-0.5-0.4-0.8-0.5c-0.5-0.2-1-0.3-1.6-0.3c-2.1-0.1-3.8,1.5-3.8,3.7v2.3
		c0,0.9-0.5,3-1.2,3.5l0,0c-0.1,0.1-0.1,0.1-0.1,0.3v0.6c0,0.2,0.1,0.3,0.3,0.3H13c0.1,0,0.3,0.1,0.3,0.3c0.2,0.8,1,1.3,1.9,1.1
		c0.5-0.1,1-0.5,1.1-1.1c0.1-0.1,0.2-0.3,0.3-0.3h3.1c0.2,0,0.3-0.1,0.3-0.3v-0.6c0-0.1-0.1-0.2-0.1-0.3c0,0-1-1.7-1.2-2.1
		C17.1,75.7,16.1,74.3,16.1,72.5z"/>
	<ellipse class="st1" cx="20.1" cy="72.5" rx="2.6" ry="2.7"/>
</g>
<path class="st2" d="M-9.3,9.8L-10,8.9c3.7-2.8,8.8-3,12.7-0.5L2.3,9.3C-1.3,7-5.9,7.2-9.3,9.8z M-10.6,10.9l-0.8-0.7
	c-0.9,0.9-1.7,2-2.2,3.3l0.9,0.3C-12.1,12.8-11.5,11.8-10.6,10.9L-10.6,10.9z M1.7,23.1l-0.1-1c-1.1,0.1-2.3-0.1-3.4-0.5l-0.3,0.9
	c0.9,0.3,2,0.6,3,0.6C1.2,23.2,1.4,23.1,1.7,23.1L1.7,23.1z M-3.2,21c-0.8-0.5-1.6-1.3-2-2.2C-5.5,18.2-6,17-5.4,16.1
	c0.4-0.7,1.2-1,1.9-1s3.1,2.5,1.8,1.3c1,1.4,2.1,2.1,3.2,2c0.8,0,1.4-0.3,1.9-0.9c0.7-0.7,1-1.6,0.9-2.5c-0.1-2.2-1.9-3.5-2.5-4
	c-2.4-1.7-5.3-2.1-8.1-1.2c-0.8,0.3-4.5,1.8-5.6,6c-0.3,0.9-0.3,1.9-0.2,2.9l1-0.2c-0.1-0.8-0.1-1.7,0.2-2.5
	c0.8-3.7,4.2-5.1,4.9-5.2c2.4-0.8,5.1-0.4,7.2,1c0.5,0.4,2.1,1.6,2.2,3.2l0,0c0.1,0.7-0.2,1.3-0.6,1.8c-0.3,0.4-0.8,0.6-1.3,0.7
	c-0.9,0.1-1.8-0.8-2.3-1.6c-0.6-0.8-1.3-1.6-2.5-1.7c-1.2-0.1-2.2,0.5-2.9,1.4C-7,17-6.4,18.5-6.1,19.2c0.5,1.1,1.3,2,2.4,2.7
	L-3.2,21z M-8.5,23c-0.8-0.8-1.5-1.8-2-2.9l-0.9,0.3c0.5,1.3,1.3,2.4,2.3,3.3L-8.5,23z M1.8,14.9c-0.6-1.2-1.5-2.1-2.6-2.7l-0.5,0.9
	c0.9,0.5,1.7,1.3,2.2,2.3L1.8,14.9z M-3.3,23.8c-1-0.4-3.4-1.7-4.4-4.3C-8,18.7-8.5,17.3-8,15.7c0.5-1.3,1.6-2.4,3-2.8
	c0.8-0.3,1.5-0.3,2.4-0.2l0.2-1c-0.9-0.2-1.9-0.1-2.8,0.3c-1.7,0.6-2.9,1.8-3.6,3.4c-0.8,1.9-0.1,3.7,0.3,4.5c1.2,2.9,3.9,4.4,5,4.8
	L-3.3,23.8z M4,19.9L3.4,19c-1.1,0.7-2.4,1-3.7,0.6s-2.4-1.3-2.9-2.7l-0.9,0.3c0.7,1.6,2,2.8,3.6,3.3c0.4,0.2,0.9,0.2,1.4,0.2
	C2,20.8,3.1,20.5,4,19.9L4,19.9z"/>
<path class="st1" d="M10.3,9.1L9.6,8.3c3.7-2.8,8.9-3,12.7-0.5l-0.5,0.8C18.3,6.3,13.7,6.5,10.3,9.1z M9,10.2L8.3,9.5
	c-1,1-1.7,2-2.2,3.2l1,0.4C7.4,12.1,8.1,11.1,9,10.2L9,10.2z M21.2,22.5l-0.1-1c-1.1,0.1-2.3-0.1-3.4-0.5l-0.4,1c1,0.4,2,0.6,3,0.6
	C20.7,22.5,21,22.5,21.2,22.5L21.2,22.5z M16.4,20.3c-0.8-0.5-1.6-1.3-2-2.2c-0.2-0.6-0.7-1.8-0.1-2.6c0.5-0.7,1.2-1,1.9-1
	s3.1,2.5,1.8,1.3c1,1.4,2.2,2.2,3.2,2c0.7,0,1.4-0.4,1.9-1c0.7-0.7,1-1.6,1-2.5c-0.1-2.2-1.9-3.5-2.5-4.1c-2.4-1.7-5.3-2.2-8.2-1.2
	c-0.8,0.1-4.7,1.7-5.6,5.9c-0.2,1-0.2,1.9-0.1,3l1-0.1c-0.1-0.8-0.1-1.7,0.1-2.5c0.8-3.7,4.2-5.1,4.9-5.3c2.4-0.8,5-0.5,7.2,1
	c0.5,0.5,2.2,1.6,2.2,3.2l0,0c0.1,0.7-0.1,1.3-0.6,1.8c-0.4,0.5-0.8,0.6-1.3,0.7c-1,0.1-1.8-0.8-2.3-1.6c-0.6-0.8-1.3-1.6-2.5-1.7
	c-1.2-0.1-2.2,0.5-2.9,1.4c-0.8,1.4-0.1,3,0.1,3.6c0.5,1.1,1.3,2,2.4,2.6L16.4,20.3z M11,22.3c-0.8-0.8-1.6-1.8-2-2.9l-0.8,0.4
	c0.5,1.3,1.3,2.4,2.3,3.2L11,22.3z M21.5,14.3c-0.6-1.2-1.6-2.2-2.6-2.6l-0.5,1c1,0.5,1.7,1.3,2.2,2.3L21.5,14.3z M16.3,23.1
	c-1-0.5-3.4-1.7-4.4-4.3c-0.4-0.7-0.8-2.2-0.2-3.9c0.5-1.3,1.6-2.4,3-2.8c0.7-0.2,1.6-0.4,2.4-0.1l0.1-1c-1-0.1-1.9-0.1-2.8,0.2
	c-1.7,0.6-3,1.8-3.6,3.4c-0.7,1.9-0.1,3.7,0.2,4.6c1.2,3,3.8,4.3,5,4.8L16.3,23.1z M23.6,19.2L23,18.4c-1.1,0.7-2.4,1-3.7,0.6
	c-1.3-0.5-2.4-1.3-3-2.6l-1,0.4c0.7,1.6,2,2.8,3.6,3.2c0.5,0.1,1,0.1,1.4,0.1C21.6,20.2,22.7,19.8,23.6,19.2L23.6,19.2z"/>
</svg>
