<?xml version="1.0" encoding="utf-8"?>
<!-- Generator: Adobe Illustrator 19.1.1, SVG Export Plug-In . SVG Version: 6.00 Build 0)  -->
<svg version="1.1" xmlns="http://www.w3.org/2000/svg" xmlns:xlink="http://www.w3.org/1999/xlink" x="0px" y="0px" width="190px"
	 height="28px" viewBox="-225 383 190 28" style="enable-background:new -225 383 190 28;" xml:space="preserve">
<style type="text/css">
	.st0{fill:#FFFFFF;}
	.st1{fill:#BB2327;}
	.st2{fill:#0505A6;}
	.st3{fill:none;}
</style>
<g id="Layer_1">
	<g>
		<g>
			<path class="st0" d="M-205.5,393.5c-0.4-0.4-1-0.4-1.4,0l-5.1,5.3l-5-5.2c-0.4-0.4-1.1-0.4-1.4-0.1c-0.4,0.4-0.4,1,0,1.4l5.6,5.7
				c0.3,0.3,0.6,0.3,0.9,0.3c0.3,0.1,0.7,0,0.9-0.3l5.6-5.7C-205.1,394.5-205.1,393.8-205.5,393.5z"/>
		</g>
	</g>
	<g>
		<g>
			<path class="st1" d="M-178.3,394.8l-5.6,5.7c-0.2,0.3-0.6,0.4-0.9,0.3c-0.3,0.1-0.7,0-0.8-0.3l-5.6-5.7c-0.4-0.4-0.4-1,0-1.4
				c0.4-0.4,1-0.4,1.4,0l5,5.2l5.1-5.2c0.4-0.4,1-0.4,1.4,0C-177.9,393.8-177.9,394.5-178.3,394.8z"/>
		</g>
	</g>
	<g>
		<g>
			<path class="st0" d="M-78.1,397l5-5.2c0.4-0.4,0.4-1,0-1.4c-0.4-0.4-1-0.4-1.4,0l-5.1,5.2l-5.1-5.2c-0.4-0.4-1-0.4-1.4,0
				c-0.4,0.4-0.4,1,0,1.4l5,5.2l-5,5.2c-0.4,0.4-0.4,1,0,1.4c0.4,0.4,1,0.4,1.4,0l5.1-5.2l5.1,5.2c0.4,0.4,1,0.4,1.4,0
				c0.4-0.4,0.4-1,0-1.4L-78.1,397z"/>
		</g>
	</g>
	<g>
		<g>
			<path class="st1" d="M-151.3,400.5c-0.4,0.4-1,0.4-1.4,0l-5.1-5.2l-5,5.2c-0.4,0.4-1,0.4-1.4,0c-0.4-0.4-0.4-1,0-1.4l5.6-5.7
				c0.1-0.3,0.5-0.4,0.8-0.3c0.3-0.1,0.7,0,0.9,0.3l5.6,5.7C-150.9,399.5-150.9,400.1-151.3,400.5z"/>
		</g>
	</g>
	<g>
		<g>
			<path class="st1" d="M-125.8,397c0-0.4-0.1-0.7-0.4-1l-7.4-7.4c-0.5-0.5-1.3-0.5-1.8,0s-0.5,1.4,0,1.9l6.6,6.5l-6.6,6.6
				c-0.5,0.5-0.5,1.4,0,1.9s1.3,0.5,1.8,0l7.4-7.4C-125.8,397.8-125.7,397.3-125.8,397z"/>
		</g>
	</g>
	<g>
		<g>
			<path class="st0" d="M-100.8,397c0-0.4-0.1-0.7-0.4-1l-7.4-7.4c-0.5-0.5-1.3-0.5-1.8,0s-0.5,1.4,0,1.9l6.6,6.5l-6.6,6.6
				c-0.5,0.5-0.5,1.4,0,1.9s1.3,0.5,1.8,0l7.4-7.4C-100.8,397.8-100.7,397.3-100.8,397z"/>
		</g>
	</g>
	<g>
		<g>
			<path class="st2" d="M-41.8,397c0-0.4-0.1-0.7-0.4-1l-7.4-7.4c-0.5-0.5-1.3-0.5-1.8,0s-0.5,1.4,0,1.9l6.6,6.5l-6.6,6.6
				c-0.5,0.5-0.5,1.4,0,1.9s1.3,0.5,1.8,0l7.4-7.4C-41.8,397.8-41.7,397.3-41.8,397z"/>
		</g>
	</g>
</g>
<g id="Layer_3">
</g>
<g id="Layer_2">
	<rect x="-225" y="383" class="st3" width="190" height="28"/>
</g>
</svg>
