<?xml version="1.0" encoding="utf-8"?>
<!-- Generator: Adobe Illustrator 25.0.0, SVG Export Plug-In . SVG Version: 6.00 Build 0)  -->
<svg version="1.1" id="Layer_1" xmlns="http://www.w3.org/2000/svg" xmlns:xlink="http://www.w3.org/1999/xlink" x="0px" y="0px"
	 viewBox="0 0 134 52" style="enable-background:new 0 0 134 52;" xml:space="preserve">
<style type="text/css">
	.st0{fill:#FFFFFF;}
	.st1{fill-rule:evenodd;clip-rule:evenodd;fill:#FFFFFF;}
	.st2{fill-rule:evenodd;clip-rule:evenodd;fill:url(#SVGID_1_);}
	.st3{fill-rule:evenodd;clip-rule:evenodd;fill:url(#SVGID_2_);}
	.st4{fill-rule:evenodd;clip-rule:evenodd;fill:url(#SVGID_3_);}
	.st5{fill:url(#SVGID_4_);}
</style>
<rect x="100.35" y="13.17" class="st0" width="6.19" height="22.32"/>
<polygon class="st0" points="132.36,13.17 124.97,13.17 117.93,22.96 117.88,22.96 117.88,13.17 111.69,13.17 111.69,35.48 
	117.88,35.48 117.88,23.59 117.93,23.59 125.26,35.48 132.93,35.48 124.63,23.01 "/>
<path class="st1" d="M30.87,26.78l2.98-9.14l0.05-0.13h0.06l2.86,9.27H30.87z M38.02,13.17h-7.56L21.9,34.83v0.65h5.93l1.49-4.35
	h9.04l1.48,4.35h6.99L38.02,13.17z"/>
<path class="st1" d="M10.91,30.91c-0.57,0.15-1.17,0.22-1.81,0.22H6.19V17.51H9.1c0.64,0,1.24,0.08,1.81,0.21
	c2.94,0.73,4.72,3.28,4.72,6.54C15.63,27.59,13.85,30.17,10.91,30.91z M21.9,21.31c-1.03-5.53-5.15-7.79-10.99-8.1
	c-0.48-0.03-0.97-0.04-1.46-0.04H0v22.32h9.46c0.49,0,0.98-0.01,1.46-0.04c5.88-0.31,9.96-2.61,10.99-8.17
	c0.18-0.92,0.26-1.9,0.26-3C22.16,23.19,22.08,22.21,21.9,21.31z"/>
<path class="st1" d="M132.88,46.97H134v-1.24h-1.12V46.97z M122.4,41.66c0,1.61,0.59,2.1,3.48,2.1h2.41c1.19,0,1.52,0.29,1.52,1.14
	V45c0,0.94-0.53,1.27-1.77,1.26l-3.18-0.01c-0.97,0-1.53-0.23-1.53-1.04v-0.51h-0.92v0.53c0,1.58,1.26,1.83,2.69,1.83h2.95
	c2.17,0,2.68-0.77,2.68-2.01v-0.38c0-1.23-0.82-1.78-2.72-1.78h-2.9c-1.37,0-1.78-0.21-1.78-1.14c0-0.98,0.39-1.29,2.25-1.29h1.7
	c2.11,0,2.36,0.29,2.36,1.24v0.11h0.93v-0.24c0-1.29-0.62-1.91-3.04-1.91h-2.11C123.38,39.65,122.4,40.02,122.4,41.66z
	 M108.38,39.73l2.88,7.25h1.27l2.45-6.37l2.46,6.37h1.26l2.88-7.25h-0.95l-2.56,6.37l-2.45-6.37h-1.26l-2.47,6.33l-2.52-6.33H108.38
	z M100.66,46.97h7.13v-0.8h-6.15v-2.54h5.88v-0.8h-5.88v-2.3h6.11v-0.8h-7.09V46.97z M89.74,46.97h0.98v-6.37l6.63,6.37h1.46v-7.25
	h-0.98v6.37l-6.63-6.37h-1.46V46.97z"/>
<g>
	<linearGradient id="SVGID_1_" gradientUnits="userSpaceOnUse" x1="69.1272" y1="37.6322" x2="65.6163" y2="51.7892">
		<stop  offset="0" style="stop-color:#B92025"/>
		<stop  offset="0.2631" style="stop-color:#AB1B25"/>
		<stop  offset="0.7559" style="stop-color:#871025"/>
		<stop  offset="1" style="stop-color:#730925"/>
	</linearGradient>
	<path class="st2" d="M57.62,20.38l0.64,11.27c0.07,1.23,0.74,2.6,1.68,3.52c0.33,0.33,0.68,0.59,1.06,0.78l4.58,2.42l4.51,2.39
		c1.38,0.75,3.04,0.92,4.7,0.92c2.11,0,4.11-0.25,5.99-0.73c10.46-2.66,17.09-12.13,17.09-21.83c0-9.87-6.28-17.24-17.09-18.68
		c-1.29-0.18-2.64-0.27-4.04-0.27c-0.64,0-1.29,0.03-1.95,0.06c-3.1,0.2-6.24,0.87-9.2,2c-1.96,0.74-3.86,1.7-5.64,2.83
		C52.72,9.67,47.8,17.51,47.42,28.26C47.07,38,54.58,46.6,65.6,49.07c7.5,1.68,16.38-0.02,16.38-0.02l-0.88-7.32
		c0,0-4.94,1.63-10.99,0.6c-16.45-2.78-19.46-24.2-10.16-32.03c1.78-1.5,3.55-3.01,5.64-4.07c2.79-1.41,5.9-2.25,9.2-2.44
		c0.44-0.02,0.88-0.04,1.32-0.04c1.6,0,3.17,0.16,4.67,0.49c6.94,1.52,12.44,6.57,12.44,15.37c0,11.16-6.18,17.51-12.44,18.98
		c-0.51,0.11-1.02,0.2-1.52,0.26l1.52-0.85l4.43-2.47c1.88-1.03,2.46-3.09,2.57-4.76l0.58-10.64c0.11-1.83-0.8-4.01-2.41-4.97
		l-5.17-3.05l-5.41-3.19c-0.18-0.11-0.38-0.21-0.58-0.28c-1.54-0.58-3.67-0.08-5.04,0.79l-4.62,2.97l-4.96,3.17
		c-0.05,0.04-0.14,0.1-0.22,0.17C58.42,16.89,57.52,18.54,57.62,20.38z M65.58,15.81l8.58-5.45l0.63,0.36l3.44,1.98
		c1.14,0.7,2,1.29,2.55,1.85c0.51,0.51,0.77,1,0.77,1.53c0,0.53-0.31,1.02-0.77,1.42c-0.89,0.8-2.31,1.32-3.06,1.32
		c-0.92,0-1.83-0.39-2.7-0.79c0.46,0.28,1.04,0.79,1.04,1.26c0,0.54-0.57,1.15-1.27,1.76c-0.92,0.78-2.08,1.55-2.57,2.13l-3.31-1.95
		c0.57-0.85,3.14-2.06,3.14-2.93c0-0.28-0.45-0.63-0.97-0.92l-0.98-0.63c-1.55,0.98-4.33,2.64-4.33,2.64l-0.18-0.09l-3.03-1.57
		L65.58,15.81z M60.25,17.23c0,0.29-0.29,0.57-0.29,0.92c0,0.45,0.92,0.74,0.92,0.92c0,0.11-0.28,0.16-0.51,0.16
		c-0.13,0-0.28-0.01-0.43-0.04c-0.45-0.1-0.94-0.35-0.94-0.88c0-0.5,0.44-1.09,0.94-1.23c0.06-0.01,0.14-0.03,0.2-0.03
		C60.2,17.05,60.25,17.11,60.25,17.23z"/>
	<linearGradient id="SVGID_2_" gradientUnits="userSpaceOnUse" x1="48.8253" y1="36.4394" x2="41.2068" y2="50.478">
		<stop  offset="0" style="stop-color:#B92025"/>
		<stop  offset="0.2631" style="stop-color:#AB1B25"/>
		<stop  offset="0.7559" style="stop-color:#871025"/>
		<stop  offset="1" style="stop-color:#730925"/>
	</linearGradient>
	<path class="st3" d="M60.09,15.62l0.08-0.05C60.22,15.53,60.22,15.53,60.09,15.62z"/>
	<linearGradient id="SVGID_3_" gradientUnits="userSpaceOnUse" x1="64.5186" y1="34.4379" x2="56.8997" y2="48.4773">
		<stop  offset="0" style="stop-color:#B92025"/>
		<stop  offset="0.2631" style="stop-color:#AB1B25"/>
		<stop  offset="0.7559" style="stop-color:#871025"/>
		<stop  offset="1" style="stop-color:#730925"/>
	</linearGradient>
	<path class="st4" d="M74.78,16.56c0.21,0.05,0.43,0.09,0.63,0.09c0.64,0,1.83-0.4,1.83-1.08c0-0.47-0.4-0.75-0.92-1.03l-1.43-0.8
		l-0.11,0.06l-2.46,1.53l1.32,0.75C73.98,16.26,74.38,16.45,74.78,16.56z"/>
</g>
<path class="st1" d="M59.96,18.14c0-0.34,0.26-0.61,0.28-0.89l-0.1-0.2c0,0-0.01-0.01-0.01-0.01c-0.06,0-0.14,0.01-0.2,0.03
	C59.44,17.21,59,17.8,59,18.31c0,0.53,0.49,0.78,0.94,0.88c0.15,0.03,0.3,0.04,0.43,0.04c0.13,0,0.26-0.02,0.36-0.05l0.06-0.23
	C60.56,18.77,59.96,18.51,59.96,18.14z"/>
<path class="st1" d="M80.77,17.5c0.45-0.4,0.77-0.89,0.77-1.42s-0.25-1.02-0.77-1.53c-0.55-0.55-1.41-1.14-2.55-1.85l-3.44-1.98
	l-0.63-0.36l-8.58,5.45l-3.03,1.93l3.03,1.57l0.18,0.09c0,0,2.79-1.66,4.33-2.64l0.98,0.63c0.51,0.29,0.97,0.64,0.97,0.92
	c0,0.87-2.57,2.07-3.14,2.93l3.31,1.95c0.49-0.59,1.66-1.36,2.57-2.13c0.7-0.6,1.27-1.22,1.27-1.76c0-0.46-0.58-0.98-1.04-1.26
	c0.87,0.4,1.78,0.79,2.7,0.79C78.46,18.82,79.88,18.31,80.77,17.5z M75.41,16.65c-0.2,0-0.41-0.04-0.63-0.09
	c-0.4-0.11-0.8-0.3-1.14-0.48l-1.32-0.75l2.46-1.53l0.11-0.06l1.43,0.8c0.51,0.28,0.92,0.57,0.92,1.03
	C77.24,16.25,76.05,16.65,75.41,16.65z"/>
<g>
	<path class="st0" d="M48.48,21.58l5.25,0.28l-0.22,4.07l-1.24-0.07l0.11-2.11l-4.01-0.22L48.48,21.58z"/>
	<path class="st0" d="M49.12,30.97c-0.24-0.87-0.19-1.64,0.13-2.32c0.32-0.68,0.88-1.12,1.67-1.34c0.76-0.21,1.46-0.11,2.09,0.27
		c0.64,0.39,1.08,1.05,1.33,1.98c0.23,0.86,0.19,1.62-0.13,2.29c-0.32,0.67-0.87,1.11-1.64,1.32c-0.8,0.22-1.52,0.12-2.16-0.29
		C49.79,32.47,49.36,31.83,49.12,30.97z M50.27,30.65c0.09,0.32,0.26,0.52,0.53,0.6c0.27,0.08,0.71,0.03,1.31-0.13
		c0.88-0.24,1.24-0.65,1.09-1.22c-0.17-0.62-0.76-0.79-1.76-0.52C50.5,29.62,50.11,30.05,50.27,30.65z"/>
	<path class="st0" d="M52.43,36.09l4.15-1.25l1.39,1.9l-2.46,3.55l0.42,0.57L54.1,42.2l-0.73-0.99l0.8-0.78l-2.26-3.08l-0.99,0.52
		l-0.73-0.99l1.83-1.35L52.43,36.09z M53.34,37.33l1.05,1.43l1.86-2.33l-0.06-0.08L53.34,37.33z"/>
	<path class="st0" d="M59.03,43.98l-0.3,0.47l-1.61-1.03L59.96,39l1.61,1.03l-1.14,1.77c-0.15,0.23-0.35,0.5-0.59,0.81
		c0.42-0.23,0.82-0.42,1.19-0.56l1.62-0.65l0.3-0.47l1.61,1.03l-2.84,4.42l-1.61-1.03l1.13-1.76c0.16-0.25,0.36-0.52,0.58-0.81
		c-0.35,0.2-0.75,0.38-1.19,0.56L59.03,43.98z"/>
	<path class="st0" d="M71.4,43.68l-1.09,5.14l-1.92-0.41l0.42-2l-1.47-0.31l-0.42,2L65,47.69l1.09-5.14l1.92,0.41l-0.4,1.89
		l1.47,0.31l0.4-1.89L71.4,43.68z"/>
	<path class="st0" d="M75.3,48.24l0.05,0.55l-1.9,0.18l-0.48-5.23l1.9-0.17l0.19,2.1c0.03,0.28,0.04,0.61,0.04,1
		c0.19-0.44,0.39-0.83,0.59-1.18l0.88-1.51l-0.05-0.56l1.9-0.17l0.48,5.23L77,48.64l-0.19-2.08c-0.03-0.3-0.04-0.63-0.04-1
		c-0.15,0.37-0.35,0.76-0.59,1.17L75.3,48.24z"/>
</g>
<path class="st0" d="M69.19,33.92l1.78,0.86v2.71l-7.73-4.42v-2.71l2.46,1.54v-5.78c-1.14-0.16-2.03-0.37-2.67-0.66v-2.74
	c1.73,0.63,2.9,0.64,3.52,0.02l2.64,1.53V33.92z"/>
<path class="st0" d="M83.95,23.83l-5.08,2.48l-0.05,2.05c0.63-0.85,1.35-1.47,2.15-1.86c1.05-0.51,1.99-0.55,2.82-0.09
	c0.83,0.45,1.27,1.37,1.34,2.77c0.07,1.47-0.33,2.89-1.21,4.27c-0.87,1.37-2.03,2.41-3.45,3.1c-1.24,0.61-2.34,0.75-3.28,0.44
	c-0.94-0.31-1.55-1.1-1.82-2.35l3.11-1.97c0.25,0.92,0.84,1.15,1.77,0.7c0.47-0.23,0.83-0.57,1.07-1.03
	c0.25-0.46,0.36-0.92,0.34-1.39c-0.02-0.53-0.2-0.88-0.51-1.03c-0.32-0.15-0.68-0.13-1.1,0.07c-0.62,0.3-1.08,0.83-1.38,1.58
	l-2.8,0.9l0.16-8.31l8.09-3.95L83.95,23.83z"/>
<linearGradient id="SVGID_4_" gradientUnits="userSpaceOnUse" x1="-143.753" y1="-223.2601" x2="-137.7646" y2="-223.2601" gradientTransform="matrix(0.9612 0.2759 -0.2759 0.9612 158.136 300.9385)">
	<stop  offset="0" style="stop-color:#B92025"/>
	<stop  offset="0.2631" style="stop-color:#AB1B25"/>
	<stop  offset="0.7559" style="stop-color:#871025"/>
	<stop  offset="1" style="stop-color:#730925"/>
</linearGradient>
<polygon class="st5" points="82.23,44.35 85.81,44.08 84.67,47.22 86.4,51.52 80.56,50.21 83.13,50.04 "/>
</svg>
