<?xml version="1.0" encoding="utf-8"?>
<!-- Generator: Adobe Illustrator 23.1.0, SVG Export Plug-In . SVG Version: 6.00 Build 0)  -->
<svg version="1.1" id="Layer_1" xmlns="http://www.w3.org/2000/svg" xmlns:xlink="http://www.w3.org/1999/xlink" x="0px" y="0px"
	 width="178px" height="40px" viewBox="0 0 178 40" style="enable-background:new 0 0 178 40;" xml:space="preserve">
<style type="text/css">
	.st0{fill:#F7ADB5;}
	.st1{fill:#FC5E2F;}
</style>
<g>
	<path class="st0" d="M30.3,15.7c0.2-0.1,0.5-0.3,0.8-0.5c0.2-0.2,0.5-0.5,0.8-0.6c0.2-0.2,0.5-0.5,0.7-0.6c0.2-0.2,0.3-0.3,0.5-0.5
		c0.1-0.1,0.2-0.1,0.3-0.1c0.2,0,0.5,0.1,0.6,0.2c0.1,0.1,0.2,0.3,0.2,0.6c0,0.1,0,0.2-0.1,0.3c-0.1,0.2-0.3,0.5-0.6,0.7
		c-0.2,0.2-0.6,0.6-0.8,0.8c-0.3,0.2-0.7,0.6-1,0.8c-0.3,0.2-0.8,0.6-1.1,0.8c-0.2,2.6-0.8,4.9-1.6,6.9c-0.8,2-2,3.6-3.3,4.9
		c-1.4,1.3-2.9,2.3-4.6,2.9c-1.7,0.7-3.6,0.9-5.5,0.9c-1,0-2.2-0.1-3.2-0.3c-1.6-0.5-2.6-0.8-3.7-1.3s-2-1-2.8-1.8
		c-0.9-0.7-1.6-1.6-2.3-2.6s-1.1-2.2-1.5-3.4c-0.3-1.1-0.6-2.6-0.6-4.2c0-1.6,0.2-3.1,0.6-4.5c0.3-1.4,0.9-2.8,1.7-3.9
		C4.5,10,5.4,8.9,6.6,7.9c1-1,2.3-1.8,3.8-2.5c0.1,0,0.2-0.1,0.3-0.1c0.2,0,0.3,0.1,0.6,0.2c0.1,0.1,0.2,0.3,0.2,0.6
		c0,0.1,0,0.2-0.1,0.5c-0.2,0-0.3,0.1-0.6,0.2c-0.1,0-0.3,0.1-0.8,0.3C9.7,7.3,9.2,7.5,8.6,8C8.1,8.5,7.4,9,6.8,9.6
		C6.1,10.3,5.5,11.1,5,12c-0.6,1-1,2.1-1.4,3.3S3,18,3,19.6c0,1.5,0.1,2.8,0.5,3.9s0.7,2.1,1.3,3c0.6,0.8,1.1,1.6,1.8,2.2
		s1.4,1,2.1,1.5c0.7,0.3,1.4,0.7,2.2,0.9c0.7,0.2,1.4,0.3,2,0.5s1.1,0.2,1.5,0.2c0.5,0,0.7,0,0.8,0c1.6,0,3.2-0.2,4.7-0.8
		s2.9-1.4,4-2.4s2.2-2.4,3-4.1c0.8-1.7,1.4-3.7,1.7-6c-0.9,0.3-1.7,0.7-2.8,0.9c-0.9,0.2-2,0.3-3,0.3c-1.4,0-2.8-0.2-4.1-0.6
		c-1.4-0.3-2.5-0.9-3.6-1.6c-1-0.7-1.8-1.6-2.5-2.8c-0.5-1.3-0.8-2.5-0.8-4c0-1.1,0.2-2.3,0.6-3.2c0.5-0.9,1-1.7,1.7-2.4
		c0.7-0.7,1.6-1.1,2.5-1.5s2-0.6,3-0.6c0.8,0,1.7,0.1,2.5,0.3c0.8,0.2,1.7,0.5,2.5,0.9c0.8,0.5,1.5,0.9,2.2,1.6s1.3,1.4,1.8,2.3
		c0.5,0.9,0.9,2,1.3,3.1s0.5,2.4,0.5,3.8V15.7z M28.7,16.6c0-0.6,0.1-1,0.1-1.6c0-1.8-0.2-3.6-0.8-4.8c-0.6-1.4-1.3-2.4-2.2-3.3
		c-0.9-0.8-1.8-1.5-3-1.8c-1.1-0.3-2.2-0.6-3.3-0.6c-0.8,0-1.6,0.1-2.4,0.5c-0.8,0.2-1.4,0.7-2,1.3s-1,1.1-1.4,2s-0.5,1.7-0.5,2.6
		s0.2,1.8,0.6,2.8c0.5,0.9,1,1.7,1.8,2.4c0.8,0.7,1.8,1.3,3,1.6c1.1,0.5,2.5,0.6,4.1,0.6c1,0,2.1-0.1,3.1-0.3
		C26.9,17.4,27.8,17.1,28.7,16.6z"/>
	<path class="st0" d="M34.4,22.8c0-1,0.1-1.4,0.2-1.5c0.1-0.1,0.2-0.1,0.3-0.1c0.2,0,0.3,0.1,0.6,0.2c0.1,0.1,0.2,0.3,0.2,0.5
		c0,0.2,0.1,0.5,0.1,0.9c0.1,0.3,0.2,0.8,0.3,1.4c0.1,0.5,0.3,1,0.6,1.6c0.2,0.6,0.5,1.1,0.7,1.7c1.6-2.6,3.3-5.1,5.3-7.5
		c0.1-0.2,0.3-0.2,0.6-0.2s0.3,0.1,0.6,0.2c0.1,0.1,0.2,0.3,0.2,0.6S44,21,43.9,21.1c-2.1,2.5-3.9,5.2-5.6,8c0.5,0.7,1,1.3,1.5,1.7
		c0.6,0.5,1.1,0.7,2,0.7c0.6,0,1.3-0.2,1.7-0.6c0.6-0.3,1-0.8,1.5-1.4s0.8-1.1,1.1-1.7s0.6-1.1,0.8-1.6c0.1-0.3,0.3-0.5,0.7-0.5
		c0.2,0,0.5,0.1,0.6,0.2s0.2,0.3,0.2,0.6c0,0.1,0,0.1,0,0.2c0,0,0,0.1-0.2,0.3c-0.1,0.3-0.3,0.7-0.6,1.1c-0.2,0.5-0.6,0.9-1,1.5
		c-0.3,0.6-0.8,1-1.4,1.5c-0.5,0.5-1,0.9-1.7,1.1c-0.6,0.3-1.3,0.5-2,0.5c-0.9,0-1.7-0.2-2.4-0.7s-1.4-1-1.8-1.7
		c-0.2,0.3-0.5,0.8-0.7,1.1c-0.2,0.3-0.5,0.8-0.7,1.1c-0.1,0.2-0.3,0.5-0.7,0.5c-0.2,0-0.5-0.1-0.6-0.2c0.3-0.1,0.2-0.2,0.2-0.5
		c0-0.1,0-0.2,0.1-0.3c0.2-0.6,0.6-1,0.8-1.6s0.6-1,0.9-1.5c-0.5-0.8-0.8-1.6-1.1-2.4s-0.6-1.6-0.8-2.3"/>
	<path class="st0" d="M50.7,31.7c0,0.9-0.1,1.8-0.5,2.8c-0.2,0.9-0.8,1.7-1.6,2.4C48.4,36.9,48.3,37,48,37c-0.2,0-0.3-0.1-0.6-0.2
		c0-0.1,0-0.2,0-0.5s0.1-0.3,0.2-0.6c0.5-0.6,0.9-1.1,1.1-1.8c0.2-0.7,0.5-1.5,0.5-2.3c0-0.2,0.1-0.3,0.2-0.6
		c0.1-0.1,0.3-0.2,0.6-0.2s0.3,0.1,0.6,0.2C50.5,31.2,50.7,31.4,50.7,31.7z"/>
	<path class="st1" d="M57.7,16.4c0-0.7,0.3-1,1.1-1H62c0.9,0,1.1,0.3,1.1,1v5.2h4.1v-5.2c0-0.7,0.3-1,1.1-1h3.2c0.9,0,1.1,0.3,1.1,1
		v14.9c0,0.7-0.2,1-1.1,1h-3.2c-0.9,0-1.1-0.3-1.1-1V26h-4.1v5.4c0,0.7-0.3,1-1.1,1h-3.2c-0.9,0-1.1-0.3-1.1-1V16.4z"/>
	<path class="st1" d="M74.8,26.9c0-3.8,2.1-5.2,6.8-5.2h0.3c0.8,0,1.6,0,2.4,0.1v-0.7c0-0.8-0.2-1.3-0.6-1.5c-0.3-0.2-1-0.3-2.1-0.3
		c-1.1,0-2.4,0.2-4,0.6c-0.8,0.2-1,0-1.1-0.7l-0.3-1.8c0-0.3-0.1-0.6-0.1-0.7c0-0.5,0.2-0.7,0.8-0.9c1.7-0.6,3.8-0.8,6-0.8
		c2.6,0,4.6,0.6,5.6,1.7c0.9,0.9,1.3,2.3,1.3,4.4v10.3c0,0.7-0.3,0.9-1.1,0.9h-1.6c-0.8,0-1-0.1-1.3-0.8L85.4,31h-0.1
		c-0.7,1-2.4,1.7-4.5,1.7h-0.6c-3.4,0-5.6-1.8-5.6-5.3v-0.5H74.8z M79.9,27.2c0,1.3,0.7,1.6,2,1.6h0.2c0.7,0,1.3-0.2,1.6-0.6
		c0.3-0.3,0.5-0.7,0.5-1.7v-0.9c-0.5-0.1-1-0.1-1.6-0.1h-0.3c-1.6,0-2.3,0.3-2.3,1.6C79.9,27.1,79.9,27.2,79.9,27.2z"/>
	<path class="st1" d="M97.4,16.4c0.1-0.7,0.6-1,1.5-1h3.1c0.8,0,1.3,0.3,1.5,1l2.4,8.3h0.1l2.4-8.3c0.2-0.7,0.7-1,1.5-1h3.2
		c0.9,0,1.5,0.3,1.5,1c0.5,5.1,0.6,10.1,0.7,14.9c0,0.7-0.3,1-1.1,1h-2.5c-0.9,0-1.3-0.3-1.1-1c0.1-2.1,0-4.5-0.1-7.3h-0.1l-1.7,5.6
		c-0.2,0.7-0.7,0.9-1.6,0.9h-1.8c-0.8,0-1.4-0.3-1.6-1l-1.7-5.6h-0.1c-0.1,2.5-0.1,5.1,0,7.3c0,0.7-0.3,1-1.1,1H98
		c-0.9,0-1.1-0.3-1.1-1C96.7,26.9,96.9,22,97.4,16.4z"/>
	<path class="st1" d="M117,26.9c0-3.8,2.1-5.2,6.8-5.2h0.2c0.8,0,1.6,0,2.4,0.1v-0.7c0-0.8-0.2-1.3-0.6-1.5c-0.3-0.2-1-0.3-2.1-0.3
		c-1.1,0-2.4,0.2-4,0.6c-0.8,0.2-1,0-1.1-0.7l-0.2-1.8c0-0.3-0.1-0.6-0.1-0.7c0-0.5,0.2-0.7,0.8-0.9c1.7-0.6,3.8-0.8,6-0.8
		c2.6,0,4.6,0.6,5.6,1.7c0.9,0.9,1.3,2.3,1.3,4.4v10.3c0,0.7-0.3,0.9-1.1,0.9h-1.6c-0.8,0-1-0.1-1.3-0.8l-0.2-0.6h-0.1
		c-0.7,1-2.4,1.7-4.5,1.7h-0.6c-3.4,0-5.6-1.8-5.6-5.3v-0.5H117z M122.2,27.2c0,1.3,0.7,1.6,2,1.6h0.2c0.7,0,1.3-0.2,1.6-0.6
		c0.3-0.3,0.5-0.7,0.5-1.7v-0.9c-0.5-0.1-1-0.1-1.6-0.1h-0.3c-1.6,0-2.3,0.3-2.3,1.6C122.2,27.1,122.2,27.2,122.2,27.2z"/>
	<path class="st1" d="M134.8,16.4c0.1-0.7,0.6-1,1.5-1h3.1c0.8,0,1.3,0.3,1.5,1l2.4,8.3h0.1l2.4-8.3c0.2-0.7,0.7-1,1.5-1h3.2
		c0.9,0,1.5,0.3,1.5,1c0.5,5.1,0.6,10.1,0.7,14.9c0,0.7-0.3,1-1.1,1H149c-0.9,0-1.3-0.3-1.1-1c0.1-2.1,0-4.5-0.1-7.3h-0.1l-1.7,5.6
		c-0.2,0.7-0.7,0.9-1.6,0.9h-1.8c-0.8,0-1.4-0.3-1.6-1l-1.7-5.6h-0.1c-0.1,2.5-0.1,5.1,0,7.3c0,0.7-0.3,1-1.1,1h-2.5
		c-0.9,0-1.1-0.3-1.1-1C134.1,26.9,134.4,22,134.8,16.4z"/>
	<path class="st1" d="M154.3,26.9c0-3.8,2.1-5.2,6.8-5.2h0.2c0.8,0,1.6,0,2.4,0.1v-0.7c0-0.8-0.2-1.3-0.6-1.5
		c-0.3-0.2-1-0.3-2.1-0.3c-1.1,0-2.4,0.2-4,0.6c-0.8,0.2-1,0-1.1-0.7l-0.2-1.8c0-0.3-0.1-0.6-0.1-0.7c0-0.5,0.2-0.7,0.8-0.9
		c1.7-0.6,3.8-0.8,6-0.8c2.6,0,4.6,0.6,5.6,1.7c0.9,0.9,1.3,2.3,1.3,4.4v10.3c0,0.7-0.3,0.9-1.1,0.9h-1.6c-0.8,0-1-0.1-1.3-0.8
		L165,31h-0.1c-0.7,1-2.4,1.7-4.5,1.7H160c-3.4,0-5.6-1.8-5.6-5.3V26.9z M159.6,27.2c0,1.3,0.7,1.6,2,1.6h0.2c0.7,0,1.3-0.2,1.6-0.6
		c0.3-0.3,0.5-0.7,0.5-1.7v-0.9c-0.5-0.1-1-0.1-1.6-0.1h-0.3c-1.6,0-2.3,0.3-2.3,1.6L159.6,27.2L159.6,27.2z"/>
	<path class="st1" d="M171.2,30.3c0-1.5,0.8-2.2,2.3-2.2h0.1c1.6,0,2.3,0.8,2.3,2.2v0.2c0,1.5-0.9,2.2-2.3,2.2h-0.1
		c-1.4,0-2.3-0.7-2.3-2.2V30.3z M171.2,15c0-0.9,0.1-1,1.1-1h2.5c1,0,1.1,0.1,1.1,1l-0.5,10.9c0,0.8-0.2,0.9-1.1,0.9h-1.6
		c-0.8,0-1-0.1-1-0.8L171.2,15z"/>
</g>
</svg>
