<?xml version="1.0" encoding="utf-8"?>
<!-- Generator: Adobe Illustrator 19.1.1, SVG Export Plug-In . SVG Version: 6.00 Build 0)  -->
<svg version="1.1" id="Layer_1" xmlns="http://www.w3.org/2000/svg" xmlns:xlink="http://www.w3.org/1999/xlink" x="0px" y="0px"
	 viewBox="0 0 392 310" style="enable-background:new 0 0 392 310;" xml:space="preserve">
<style type="text/css">
	.st0{fill:#2D2BC6;}
</style>
<path class="st0" d="M152.7,3c0,14,0,27.3,0,38.4c-18.1,10.4-36.2,18.6-51.8,30.1c-19.8,14.7-36.5,33-41.4,58.8
	c-0.7,3.6-1.1,7.5-0.6,11.2c1.6,12.7,8,17.2,20.5,14.8c6-1.1,11.9-3.2,17.9-3.9c32.5-4.1,57.6,7.4,72.9,36.7
	c15.3,29.4,13.6,58.4-5.3,85.8c-32.1,46.6-113,43.2-143.6-12.8c-15-27.5-19.4-56.7-16.7-87.7c4.4-51.2,27.2-92.8,64-127.5
	C89.6,27.1,122.6,9.8,152.7,3z"/>
<path class="st0" d="M356.1,4.6c0,12.6,0.5,24.5-0.3,36.4c-0.2,2.7-4.2,6.3-7.3,7.6c-26.8,11-49.6,27.2-67.1,50.5
	c-8.8,11.7-14.3,24.6-13.6,39.8c0.7,15.7,6.7,20.1,22.4,16.8c10.1-2.1,20.7-3.5,31-3.5c35.6,0,56.5,26.6,64.4,53.3
	c13.1,44.3-16.1,94-60.7,100.3c-45.6,6.5-83.1-10-101.9-58.3c-20.5-52.7-12.3-103.9,15.1-152.3C263.3,50.9,301,21.5,349.5,5.9
	C351.4,5.3,353.4,5.1,356.1,4.6z"/>
</svg>
