<?xml version="1.0" encoding="utf-8"?>
<!-- Generator: Adobe Illustrator 19.1.1, SVG Export Plug-In . SVG Version: 6.00 Build 0)  -->
<svg version="1.1" xmlns="http://www.w3.org/2000/svg" xmlns:xlink="http://www.w3.org/1999/xlink" x="0px" y="0px"
	 viewBox="0 0 56.7 56.7" style="enable-background:new 0 0 56.7 56.7;" xml:space="preserve">
<style type="text/css">
	.st0{display:none;}
	.st1{display:inline;fill:#3D4FA1;}
	.st2{fill:#FFFFFF;}
</style>
<g id="Layer_2" class="st0">
	<rect class="st1" width="56.7" height="56.7"/>
</g>
<g id="Layer_3">
	<g>
		<path class="st2" d="M29.3,22.5c0.8,1.5,2.8,6,3.3,7.2c-0.1,0-12.9,6.7-14.7,8.6c-1.8,1.9-4.6,5.2-5.8,7.4c-1.9-2.2-4.9-6-5.9-8.8
			c-1.1-2.7-1.6-5.6-1.6-8.6c0-0.3,0-2.6,0-2.7C13.4,25.6,21.7,24.8,29.3,22.5 M30.3,20.1l-1.6,0.5c-6.7,2-14.6,3-24.1,3H2.9
			l-0.2,1.7c-0.1,0.4-0.1,2.9-0.1,3c0,3.2,0.6,6.4,1.7,9.3c1.3,3.3,4.7,7.6,6.3,9.4l1.9,2.1l1.4-2.4c1-1.8,3.6-5,5.5-7
			c1.2-1.2,10.4-6.3,14.1-8.2l1.7-0.9l-0.7-1.7c-0.5-1.2-2.6-5.7-3.4-7.3L30.3,20.1L30.3,20.1z"/>
		<path class="st2" d="M28.4,4.5c6,0,11.2,2,15.7,6l-0.5,0.6c-0.2,0.3-0.6,0.7-1.4,1.5c-0.7,0.7-1.5,1.4-2.4,2.1
			c-0.9,0.7-2,1.4-3.5,2.2c-1.5,0.8-4,2.4-5.7,3.1C28,14.8,22,5.6,22,5.6S26.5,4.5,28.4,4.5 M28.4,2.5c-2,0-6.4,1-6.9,1.2l-2.7,0.7
			l1.5,2.4c0.1,0.1,6,9.2,8.7,14.2l0.8,1.5l1.6-0.6c1.4-0.5,3.3-1.6,4.7-2.5c0.4-0.3,0.9-0.5,1.2-0.7c1.6-0.9,2.8-1.7,3.7-2.4
			c0.9-0.7,1.8-1.5,2.6-2.2c1.1-1.1,1.4-1.5,1.6-1.7l0.5-0.6l1-1.5l-1.3-1.2C40.6,4.7,34.9,2.5,28.4,2.5L28.4,2.5z"/>
		<path class="st2" d="M33.7,31.8c2.4,6.2,4.8,11.9,5.8,17.8c-3,1.3-7.9,2.5-11.1,2.5c-5.7,0-10.7-1.8-15.2-5.4l0.5,0.4
			c0.8-1.9,2.1-3.7,3.7-5.4c1.6-1.7,3.2-3.1,4.8-4.2c1.5-1.1,3.2-2,5-3c1.8-0.9,3-1.5,3.7-1.8c0.7-0.3,1.2-0.5,1.6-0.6l0.1,0
			L33.7,31.8 M34.9,29.4l-1.8,0.5L32,30.2l-0.2,0.1l-0.1,0.1c-0.4,0.1-0.9,0.3-1.5,0.6c-0.7,0.3-2,0.9-3.9,1.9c-1.9,1-3.6,2-5.2,3.1
			c-1.6,1.1-3.3,2.6-5.1,4.4c-1.8,1.9-3.2,3.9-4.1,5.9l1.1,0.5l-1.1,1.5c4.8,3.9,10.3,5.9,16.4,5.9c3.5,0,8.8-1.4,11.9-2.7l1.5-0.6
			l-0.3-1.6c-0.9-5.1-2.8-10-4.8-15.2c-0.4-1-0.7-1.9-1.1-2.9L34.9,29.4L34.9,29.4z"/>
		<path class="st2" d="M19.8,6.3c3,4,5.7,9,8.6,14.2c-7.4,1.9-15.9,2.9-23.3,2.9c0.8-3.7,2.3-6.9,4.6-9.9C12,10.6,16.4,7.9,19.8,6.3
			 M20.4,3.8l-1.5,0.7c-1.7,0.8-7.6,3.8-10.7,7.8C5.7,15.4,4,19,3.1,23l-0.5,2.4h2.5c7.9,0,16.6-1.1,23.8-3l2.5-0.7l-1.3-2.3
			c-0.4-0.7-0.8-1.5-1.2-2.2c-2.5-4.4-4.8-8.7-7.5-12.2L20.4,3.8L20.4,3.8z"/>
		<path class="st2" d="M42.6,30.9c3.2,0,6.4,0.3,9.3,1.2c-0.5,3.3-1.7,6.3-3.5,9.1c-1.8,2.8-4.4,5.4-7,7.2c-1-5.6-3.4-11.2-5.5-17
			C38,31.1,40.3,30.9,42.6,30.9 M42.6,28.9c-2.3,0-4.8,0.2-7,0.5l-2.4,0.4l0.8,2.3c0.4,1.1,0.8,2.3,1.3,3.4c1.7,4.6,3.4,9,4.1,13.3
			l0.5,3l2.5-1.7c2.9-2,5.7-4.8,7.6-7.8c1.9-3,3.2-6.3,3.8-9.9l0.3-1.8l-1.7-0.5C49.6,29.3,46.2,28.9,42.6,28.9L42.6,28.9z"/>
		<path class="st2" d="M45.9,12.3l0.9,0.9c3.5,4.3,5.2,10.1,5.3,15.8c0,0-2.6-0.3-6.6-0.3c-3,0-6.6,0.2-10.5,0.7
			c-0.1-0.1-3.5-8-3.5-8S43.9,16.5,45.9,12.3 M45.2,9l-1.2,2.5c-1.1,2.4-8.4,6.1-13.2,8l-1.9,0.7l0.8,1.9c3.4,8,3.5,8.1,3.6,8.3
			l0.7,1.1l1.3-0.2c3.2-0.4,6.6-0.7,10.2-0.7c3.8,0,6.4,0.3,6.4,0.3l2.2,0.2l0-2.2c-0.1-6.6-2.1-12.6-5.7-17l-0.1-0.1l-0.1-0.1
			l-0.9-0.9L45.2,9L45.2,9z"/>
	</g>
</g>
</svg>
