<?xml version="1.0" encoding="utf-8"?>
<!-- Generator: Adobe Illustrator 19.1.1, SVG Export Plug-In . SVG Version: 6.00 Build 0)  -->
<svg version="1.1" xmlns="http://www.w3.org/2000/svg" xmlns:xlink="http://www.w3.org/1999/xlink" x="0px" y="0px"
	 viewBox="0 0 56.7 56.7" style="enable-background:new 0 0 56.7 56.7;" xml:space="preserve">
<style type="text/css">
	.st0{display:none;}
	.st1{display:inline;fill:#3D4FA1;}
	.st2{fill:#FFFFFF;}
</style>
<g id="Layer_2" class="st0">
	<rect class="st1" width="56.7" height="56.7"/>
</g>
<g id="Layer_1">
	<g>
		<g>
			<path class="st2" d="M28.5,42.1c-7.6,0-13.8-6.2-13.8-13.8c0-7.6,6.2-13.8,13.8-13.8c7.6,0,13.8,6.2,13.8,13.8
				C42.3,35.9,36.1,42.1,28.5,42.1z M28.5,16.5c-6.5,0-11.8,5.3-11.8,11.8c0,6.5,5.3,11.8,11.8,11.8c6.5,0,11.8-5.3,11.8-11.8
				C40.3,21.8,35,16.5,28.5,16.5z"/>
		</g>
	</g>
	<g>
		<path class="st2" d="M15.1,15l-0.2,0.2c-0.5,0.5-1.3,0.5-1.7,0l-4.9-4.9c-0.5-0.5-0.5-1.3,0-1.7l0.2-0.2c0.5-0.5,1.3-0.5,1.7,0
			l4.9,4.9C15.6,13.8,15.6,14.6,15.1,15z"/>
	</g>
	<g>
		<path class="st2" d="M48.3,48l-0.2,0.2c-0.5,0.5-1.3,0.5-1.7,0l-4.9-4.9c-0.5-0.5-0.5-1.3,0-1.7l0.2-0.2c0.5-0.5,1.3-0.5,1.7,0
			l4.9,4.9C48.8,46.8,48.8,47.5,48.3,48z"/>
	</g>
	<g>
		<path class="st2" d="M48.4,8.3l-0.2-0.2c-0.5-0.5-1.3-0.5-1.7,0L41.6,13c-0.5,0.5-0.5,1.3,0,1.7l0.2,0.2c0.5,0.5,1.3,0.5,1.7,0
			l4.9-4.9C48.9,9.5,48.9,8.8,48.4,8.3z"/>
	</g>
	<g>
		<path class="st2" d="M15.4,41.6l-0.2-0.2c-0.5-0.5-1.3-0.5-1.7,0l-4.9,4.9c-0.5,0.5-0.5,1.3,0,1.7l0.2,0.2c0.5,0.5,1.3,0.5,1.7,0
			l4.9-4.9C15.9,42.8,15.9,42.1,15.4,41.6z"/>
	</g>
	<g>
		<path class="st2" d="M9.8,28.4l0-0.3c0-0.7-0.6-1.2-1.2-1.2l-6.9,0c-0.7,0-1.2,0.6-1.2,1.2l0,0.3c0,0.7,0.6,1.2,1.2,1.2l6.9,0
			C9.3,29.6,9.8,29.1,9.8,28.4z"/>
	</g>
	<g>
		<path class="st2" d="M56.2,28.6l0-0.3c0-0.7-0.6-1.2-1.2-1.2l-6.9,0c-0.7,0-1.2,0.6-1.2,1.2l0,0.3c0,0.7,0.6,1.2,1.2,1.2l6.9,0
			C55.7,29.8,56.2,29.2,56.2,28.6z"/>
	</g>
	<g>
		<path class="st2" d="M28.6,0.4l-0.3,0c-0.7,0-1.2,0.6-1.2,1.2l0,6.9c0,0.7,0.6,1.2,1.2,1.2l0.3,0c0.7,0,1.2-0.6,1.2-1.2l0-6.9
			C29.9,1,29.3,0.4,28.6,0.4z"/>
	</g>
	<g>
		<path class="st2" d="M28.6,46.9l-0.3,0c-0.7,0-1.2,0.6-1.2,1.2l0,6.9c0,0.7,0.6,1.2,1.2,1.2l0.3,0c0.7,0,1.2-0.6,1.2-1.2l0-6.9
			C29.8,47.5,29.2,46.9,28.6,46.9z"/>
	</g>
</g>
</svg>
